# xmcd CD database file
#
# Track frame offsets:
#	150
#	20033
#	37838
#	60795
#	80341
#	96913
#	113491
#	129174
#	145200
#	166896
#	187077
#
# Disc length: 2772 seconds
#
# Revision: 1
# Processed by: cddbd v1.5.2PL0 Copyright (c) Steve Scherf et al.
# Submitted via: CDex 2.21
#
DISCID=810ad20b
DTITLE=Tim McGraw - Two Lanes Of Freedom
DYEAR=2013
DGENRE=Country
TTITLE0=Two Lanes Of Freedom
TTITLE1=One Of Those Nights
TTITLE2=Friend Of A Friend
TTITLE3=Southern Girl
TTITLE4=Truck Yeah
TTITLE5=Nashville Without You
TTITLE6=Book Of John
TTITLE7=Mexicoma
TTITLE8=Number 37405
TTITLE9=It's Your World
TTITLE10=Highway Don't Care 
EXTD=YEAR: 2013
EXTT0=
EXTT1=
EXTT2=
EXTT3=
EXTT4=
EXTT5=
EXTT6=
EXTT7=
EXTT8=
EXTT9=
EXTT10=
PLAYORDER=
